<svg xmlns="http://www.w3.org/2000/svg" width="25" height="25" viewBox="0 0 25 25">
  <g id="Icon_ionic-ios-close-circle-outline" data-name="Icon ionic-ios-close-circle-outline" transform="translate(-3.375 -3.375)">
    <path id="Path_1" data-name="Path 1" d="M22.226,20.791l-3.343-3.343L22.226,14.1a1.014,1.014,0,0,0-1.434-1.434l-3.343,3.343-3.343-3.343A1.014,1.014,0,0,0,12.672,14.1l3.343,3.343-3.343,3.343a.98.98,0,0,0,0,1.434,1.007,1.007,0,0,0,1.434,0l3.343-3.343,3.343,3.343a1.019,1.019,0,0,0,1.434,0A1.007,1.007,0,0,0,22.226,20.791Z" transform="translate(-1.573 -1.572)" fill="#999"/>
    <path id="Path_2" data-name="Path 2" d="M15.875,5.058a10.813,10.813,0,1,1-7.65,3.167,10.746,10.746,0,0,1,7.65-3.167m0-1.683a12.5,12.5,0,1,0,12.5,12.5,12.5,12.5,0,0,0-12.5-12.5Z" fill="#999"/>
  </g>
</svg>
