<svg xmlns="http://www.w3.org/2000/svg" width="500" height="427.646" viewBox="0 0 500 427.646">
  <g id="noun_cheeseburger_392926" transform="translate(-4.918 -4.5)">
    <g id="Group_1" data-name="Group 1" transform="translate(4.918 4.5)">
      <path id="Path_1" data-name="Path 1" d="M31.261,103.085H295.276A266.661,266.661,0,0,0,261.836,80.9c-32.46-18.077-66.019-27.242-99.749-27.242H18.934a26.246,26.246,0,0,0,12.327,49.425Z" transform="translate(-4.918 217.238)" fill="#4e3b16"/>
      <path id="Path_2" data-name="Path 2" d="M171.818,53.686c-38.079,1.619-70.947,18.614-95.246,49.272H159.2a26.248,26.248,0,0,0,12.616-49.272Z" transform="translate(314.45 217.363)" fill="#4e3b16"/>
      <path id="Path_3" data-name="Path 3" d="M485.94,64.833H390.665c-10.471,15.021-23.19,29.83-46.209,29.83-8.9,0-22.774-2.24-40.7-21.663-2.325-2.523-4.961-5.277-7.869-8.167H17.331C10.549,64.833,5,71.753,5,80.2c0,45.915,37.7,83.126,84.2,83.126H410.98c46.5,0,87.285-37.211,87.285-83.12C498.271,71.753,492.722,64.833,485.94,64.833Z" transform="translate(-4.918 264.323)" fill="#edcb8a"/>
      <path id="Path_4" data-name="Path 4" d="M17.887,192.594H486.5c6.781,0,12.336-6.914,12.336-15.364C498.828,89.565,388.408,18.5,252.189,18.5S5.556,89.565,5.556,177.23C5.556,185.68,11.105,192.594,17.887,192.594ZM462.9,113.037a8.073,8.073,0,1,1-7.575,8.06A7.82,7.82,0,0,1,462.9,113.037ZM388.5,62.95a8.079,8.079,0,1,1-7.569,8.06A7.824,7.824,0,0,1,388.5,62.95Zm-8.124,58.567a8.077,8.077,0,1,1-7.564,8.054A7.815,7.815,0,0,1,380.372,121.517ZM338.9,80.252a8.076,8.076,0,1,1-7.569,8.06A7.829,7.829,0,0,1,338.9,80.252ZM316.661,46.557a8.077,8.077,0,1,1-7.564,8.066A7.826,7.826,0,0,1,316.661,46.557Zm-5.988,74.676a8.077,8.077,0,1,1-7.564,8.06A7.821,7.821,0,0,1,310.673,121.233Zm-49.466-22.1a8.073,8.073,0,1,1-7.575,8.054A7.823,7.823,0,0,1,261.207,99.132Zm8.418-46.2a8.077,8.077,0,1,1-7.564,8.06A7.829,7.829,0,0,1,269.625,52.933ZM422.43,95.392a8.076,8.076,0,1,1-7.569,8.06A7.824,7.824,0,0,1,422.43,95.392Zm-207.666,4.757a7.584,7.584,0,1,1-7.569-8.06A7.825,7.825,0,0,1,214.765,100.149ZM199.5,42.917a8.076,8.076,0,1,1-7.575,8.06A7.821,7.821,0,0,1,199.5,42.917Zm-47.9,56.463a8.073,8.073,0,1,1-7.569,8.06A7.825,7.825,0,0,1,151.608,99.381ZM120.4,67.5a8.076,8.076,0,1,1-7.575,8.06A7.825,7.825,0,0,1,120.4,67.5ZM79.351,97.555a8.076,8.076,0,1,1-7.575,8.06A7.825,7.825,0,0,1,79.351,97.555ZM53.269,123.963a8.079,8.079,0,1,1-7.575,8.066A7.829,7.829,0,0,1,53.269,123.963Z" transform="translate(-2.189 -18.5)" fill="#edcb8a"/>
      <rect id="Rectangle_1" data-name="Rectangle 1" width="500" height="30" rx="15" transform="translate(0 226.423)" fill="#319d3e"/>
      <rect id="Rectangle_2" data-name="Rectangle 2" width="500" height="30" rx="15" transform="translate(0 182.45)" fill="#c31d1d"/>
    </g>
  </g>
</svg>
